<?xml version="1.0" encoding="UTF-8"?>
<svg id="Layer_1" xmlns="http://www.w3.org/2000/svg" version="1.1" viewBox="0 0 196 196">
  <defs>
    <style>
      .st0 {
        fill: #f90101;
      }
    </style>
  </defs>
  <g id="S4Y9jZ">
    <g>
      <path class="st0" d="M123.12,165.32c-21.51,8.28-44.33,5.18-63.17-6.15-5.25-17.35-6.34-35.44-.67-53.56,11.22,29.19,34.02,50.43,63.85,59.72Z"/>
      <path class="st0" d="M136.8,90.73c-10.83-28.78-33.37-50.58-63.82-59.92,17.13-7,35.68-6.03,52.45.78,3.82,1.53,7.12,3.35,10.7,5.56,5.28,17.37,6.19,35.36.67,53.58Z"/>
      <path class="st0" d="M131.88,161.51c-17.95-4.03-34.01-12.9-46.81-26.16,31.1,4.69,60.4-4.13,83.77-25.3-3.58,22.17-17.48,40.54-36.97,51.45Z"/>
      <path class="st0" d="M51.92,152.75c-17.44-13.49-26.1-35.05-25.92-56.73,12.2-13.81,28.3-23.57,46.13-27.86-19.59,24.25-26.14,53.24-20.21,84.58Z"/>
      <path class="st0" d="M110.87,60.76c-31.5-4.89-61.16,4.58-83.71,25.12,3.81-22.81,18.07-40.85,37.04-51.37,17.99,4.22,34.07,12.97,46.66,26.25Z"/>
      <path class="st0" d="M169.99,100.07c-12.13,13.31-27.38,23.27-45.67,27.62,19.15-24.69,25.99-53.9,19.54-84.76,17.32,14.03,26.5,34.75,26.13,57.14Z"/>
    </g>
  </g>
  <g id="Qj6pnh.tif">
    <path class="st0" d="M195.2,98c0,53.68-43.52,97.2-97.2,97.2S.8,151.68.8,98,44.32.8,98,.8s97.2,43.52,97.2,97.2ZM186.84,98.17c0-49.07-39.78-88.84-88.84-88.84S9.16,49.11,9.16,98.17s39.78,88.84,88.84,88.84,88.84-39.78,88.84-88.84Z"/>
  </g>
</svg>