<?xml version="1.0" encoding="UTF-8"?>
<svg id="Layer_1" xmlns="http://www.w3.org/2000/svg" version="1.1" viewBox="0 0 1404 864" xmlns:c2pa="http://c2pa.org/manifest">
  <defs>
    <style>
      .st0 {
        fill: #010000;
      }

      .st1 {
        fill: #fbfbfb;
      }

      .st2 {
        fill: #f90101;
      }
    </style>
  </defs>
  <path class="st2" d="M0,0h1404v864H0V0ZM1352.5,52.73l-1300.99.03.02,758.41,1300.99-.03-.02-758.41Z"/>
  <path class="st0" d="M1352.5,52.73l.02,758.41-1300.99.03-.02-758.41,1300.99-.03ZM1078.56,676.3c35.24-.02,66.03-33.11,66.03-67.72l-.07-353.55c0-36.75-32.61-67.28-68.4-67.28l-748.3-.12c-36.15.9-66,29.48-68.66,66.19v355.7c2.56,40.65,37.86,70.61,77.7,67.1l741.7-.32Z"/>
  <g>
    <path class="st1" d="M457.93,340.94c5.09,14.58,4.82,39.79-.28,54.11-3.85,10.81-13.27,18.24-24.92,18.24h-42.67s.03-88.97.03-88.97l45.46.05c10.62.01,18.99,6.46,22.38,16.58Z"/>
    <path class="st1" d="M1078.56,676.3l-741.7.32c-39.84,3.51-75.14-26.45-77.7-67.1V253.82c2.66-36.71,32.51-65.29,68.66-66.19l748.3.12c35.79,0,68.39,30.53,68.4,67.28l.07,353.55c0,34.61-30.79,67.7-66.03,67.72ZM471.31,585.31h45.54c2.89,0,5.18-3.13,4.71-6.24l-10.84-72.98c-1.81-10.82-2.79-21.07-6.39-31.26-4.62-14.9-14.39-26.35-29.16-33.46,20.71-10.01,35.55-27.84,40.21-50.85,3.81-18.83,4.06-37.8.59-56.65-4.04-21.87-17.7-39.32-37.5-48.39-11.34-5.2-22.98-8.36-35.81-8.39l-100.91-.21c-3.38,0-5.28,3.01-5.29,6.51l-.04,296.53c0,3.69,2.23,5.36,5.22,5.37l43.11.05c3.01,0,5.31-1.82,5.31-5.29l.03-118.94,30.86-.28c7.62-.07,14.4,3.19,19.96,8.33,4.86,6.26,8.63,13.17,9.98,21.37l14.96,90.38c.45,2.74,2.23,4.38,5.45,4.38ZM690.91,515.27l15.89,66.96c.8,1.9,2.14,2.93,4.18,3.11l48.97-.25c2.5-.01,4.1-4.6,3.51-7.04l-13.49-55.99-59.35-241.33c-.64-2.61-3.46-3.81-5.69-3.81h-67.03c-2.81-.01-5.06,1.9-5.75,4.68l-23,92.39-51.04,203.11c-.65,2.59.24,7.86,2.79,7.88l48.92.35c2.04-.28,3.36-1.31,4.08-3.26l15.9-66.94,81.11.13ZM1070.83,284.07c.87-4.88-2.47-7.19-5.5-7.19l-42.17.07c-2.42.04-4.86,1.26-5.35,4.12l-37.35,217.53-35.49-216.09c.15-3.5-1.9-5.22-4.88-5.58l-47.01-.04c-2.92.03-5.12,1.49-5.67,4.66l-37.91,217.03-34.74-215.04c.17-3.7-1.57-5.97-4.71-6.68l-45.1.22c-3.08.02-4.92,3.79-4.32,7.45l48.6,297.09c.45,2.77,2.53,3.7,4.79,3.7l60.05-.02c2.75.09,4.76-1.2,5.12-4.26l36.07-198.21,32.59,197.57c.47,2.88,1.42,4.53,4.34,4.97l60.99-.08c2.64,0,4.7-1.27,5.21-4.17l19.78-112.91,32.65-184.16Z"/>
    <polygon class="st1" points="619.98 468.24 631.36 416.78 650.3 333.7 680.74 468.27 619.98 468.24"/>
    <g>
      <path class="st0" d="M1070.83,284.07l-32.65,184.16-19.78,112.91c-.51,2.9-2.57,4.16-5.21,4.17l-60.99.08c-2.92-.44-3.86-2.1-4.34-4.97l-32.59-197.57-36.07,198.21c-.35,3.06-2.37,4.35-5.12,4.26l-60.05.02c-2.26,0-4.34-.93-4.79-3.7l-48.6-297.09c-.6-3.67,1.24-7.44,4.32-7.45l45.1-.22c3.14.71,4.88,2.97,4.71,6.68l34.74,215.04,37.91-217.03c.55-3.17,2.75-4.63,5.67-4.66l47.01.04c2.99.36,5.03,2.08,4.88,5.58l35.49,216.09,37.35-217.53c.49-2.86,2.94-4.08,5.35-4.12l42.17-.07c3.03,0,6.37,2.3,5.5,7.19Z"/>
      <path class="st0" d="M471.31,585.31c-3.22,0-5-1.64-5.45-4.38l-14.96-90.38c-1.36-8.2-5.13-15.11-9.98-21.37-5.56-5.14-12.34-8.4-19.96-8.33l-30.86.28-.03,118.94c0,3.46-2.3,5.29-5.31,5.29l-43.11-.05c-2.99,0-5.22-1.68-5.22-5.37l.04-296.53c0-3.51,1.91-6.52,5.29-6.51l100.91.21c12.83.03,24.47,3.19,35.81,8.39,19.8,9.07,33.46,26.52,37.5,48.39,3.48,18.84,3.23,37.82-.59,56.65-4.66,23.01-19.5,40.84-40.21,50.85,14.77,7.1,24.54,18.56,29.16,33.46,3.6,10.19,4.58,20.44,6.39,31.26l10.84,72.98c.46,3.11-1.82,6.24-4.71,6.24h-45.54ZM457.93,340.94c-3.39-10.11-11.76-16.57-22.38-16.58l-45.46-.05-.03,88.98h42.67c11.65,0,21.07-7.43,24.92-18.25,5.1-14.32,5.37-39.53.28-54.11Z"/>
      <path class="st0" d="M690.91,515.27l-81.11-.13-15.9,66.94c-.72,1.95-2.04,2.98-4.08,3.26l-48.92-.35c-2.55-.02-3.44-5.29-2.79-7.88l51.04-203.11,23-92.39c.69-2.78,2.94-4.69,5.75-4.69h67.03c2.23.01,5.05,1.21,5.69,3.82l59.35,241.33,13.49,55.99c.59,2.45-1.01,7.03-3.51,7.04l-48.97.25c-2.05-.19-3.38-1.21-4.18-3.11l-15.89-66.96ZM619.98,468.24l60.76.04-30.45-134.57-18.94,83.08-11.37,51.45Z"/>
    </g>
  </g>
  </svg>