<?xml version="1.0" encoding="UTF-8"?>
<svg id="Layer_1" xmlns="http://www.w3.org/2000/svg" version="1.1" viewBox="0 0 540 360">
  <!-- Generator: Adobe Illustrator 30.3.0, SVG Export Plug-In . SVG Version: 2.1.3 Build 182)  -->
  <defs>
    <style>
      .st0 {
        stroke: #be202e;
        stroke-miterlimit: 10;
        stroke-width: 2px;
      }

      .st0, .st1 {
        fill: #be202e;
      }

      .st2 {
        fill: #fff;
      }
    </style>
  </defs>
  <g>
    <path class="st0" d="M9.42,311.56v39.96h37.84v-13.78l9.09,1.92v6.52c0,10.26-2.85,13.03-12.68,13.03H13.12c-9.83,0-12.79-2.88-12.79-13.03v-29.06c0-10.15,2.96-13.03,12.79-13.03h30.55c9.83,0,12.68,2.78,12.68,13.03v5.23l-9.09,1.71v-12.5H9.42Z"/>
    <path class="st0" d="M66.7,304.08h9.09v22.54h43.02v-22.54h9.09v55.13h-9.09v-25h-43.02v25h-9.09v-55.13Z"/>
    <path class="st0" d="M139.65,304.08h43.97c7.93,0,11.52,2.99,11.52,10.68v12.29c0,7.69-3.59,10.68-11.52,10.68h-8.03l24.94,21.47h-13.53l-22.2-21.47h-16.07v21.47h-9.09v-55.13ZM148.74,311.24v19.34h31.29c4.02,0,5.92-.96,5.92-5.66v-8.01c0-4.59-1.9-5.66-5.92-5.66h-31.29Z"/>
    <path class="st0" d="M211.44,304.08h9.09v55.13h-9.09v-55.13Z"/>
    <path class="st0" d="M240.22,311.56v15.38h34.35c9.93,0,12.68,3.1,12.68,13.03v6.2c0,10.15-2.85,13.03-12.68,13.03h-31.81c-9.83,0-12.79-2.88-12.79-13.03v-1.5l8.46-2.03v8.87h40.59v-16.56h-34.25c-9.72,0-12.68-2.78-12.68-13.04v-4.81c0-10.26,2.96-13.03,12.68-13.03h29.07c9.09,0,12.79,2.56,12.79,12.07v1.18l-7.82,2.24v-8.01h-38.58Z"/>
    <path class="st2" d="M308.15,311.56v15.38h34.35c9.94,0,12.68,3.1,12.68,13.03v6.2c0,10.15-2.85,13.03-12.68,13.03h-31.81c-9.83,0-12.79-2.88-12.79-13.03v-1.5l8.46-2.03v8.87h40.59v-16.56h-34.24c-9.72,0-12.68-2.78-12.68-13.04v-4.81c0-10.26,2.96-13.03,12.68-13.03h29.07c9.09,0,12.79,2.56,12.79,12.07v1.18l-7.82,2.24v-8.01h-38.58Z"/>
    <path class="st2" d="M365.22,304.08h9.09v55.13h-9.09v-55.13Z"/>
    <path class="st2" d="M386.07,304.08h9.09v47.44h41.33v7.69h-50.42v-55.13Z"/>
    <path class="st2" d="M421.9,304.08h9.83l24.1,45.94,23.04-45.94h8.98l-28.54,55.13h-7.61l-29.81-55.13Z"/>
    <path class="st2" d="M500.27,304.08h9.72l30.33,55.13h-10.04l-6.98-13.57h-36.89l-6.98,13.57h-8.98l29.81-55.13ZM519.61,338.59l-14.69-28.21-14.69,28.21h29.38Z"/>
  </g>
  <g>
    <g>
      <path class="st2" d="M201.17,89.41v54.7h182.25c13.14,0,24.13,1.11,32.96,3.34,8.83,2.21,15.78,5.91,20.87,11.08,5.07,5.19,8.62,12.12,10.71,20.81,2.04,8.69,3.1,12.58,3.1,25.51v17.88c0,13.32-1.06,24.31-3.1,33-2.09,8.69-5.73,15.62-11.01,20.81-5.25,5.17-12.2,8.78-20.85,10.81-8.65,2.03-19.54,3.05-32.69,3.05h-159.09c-13.14,0-24.04-1.02-32.69-3.05-8.65-2.03-15.6-5.64-20.87-10.81-5.25-5.19-9.01-12.12-11.26-20.81-2.25-8.69-3.37-28.78-3.37-42.09v-7.76l46.07-10.54v55.14h203.9v-64.77h-181.67c-13.17,0-24.06-1.02-32.69-3.05-8.65-2.03-15.51-5.64-20.58-10.81s-8.74-12.12-11.01-20.81c-2.25-8.69-3.37-23.11-3.37-36.42v3.64c0-13.32,1.12-24.31,3.37-33,2.27-8.69,5.94-15.62,11.01-20.81,5.07-5.17,11.93-8.78,20.58-10.81,8.62-2.03,19.52-3.05,32.69-3.05h155.04c12.02,0,22.34.93,30.99,2.78s15.69,5.17,21.15,9.98c5.44,4.81,9.47,11.28,12.11,19.41,2.64,8.15,3.95,18.3,3.95,30.51v6.09l-42.68,11.65v-41.59h-203.82Z"/>
      <path class="st1" d="M136.79,38.03v212.45h196.43v-55.97l47.18,10v18.23c0,13.32-1,24.31-3.01,33s-5.58,15.62-10.69,20.81c-5.14,5.17-11.9,8.78-20.29,10.81-8.42,2.03-19.02,3.05-31.84,3.05h-158.56c-12.82,0-23.42-1.02-31.84-3.05-8.42-2.03-15.18-5.64-20.29-10.81-5.14-5.19-8.77-12.12-10.96-20.81-2.21-8.69-3.3-19.68-3.3-33V66.87c0-13.32,1.09-24.31,3.3-33,2.19-8.69,5.83-15.62,10.96-20.81,5.11-5.17,11.88-8.78,20.29-10.81,8.42-2.03,19.02-3.05,31.84-3.05h158.56c12.82,0,23.42,1.02,31.84,3.05,8.39,2.03,15.16,5.64,20.29,10.81,5.11,5.19,8.68,12.12,10.69,20.81,2.01,8.69,3.01,14.74,3.01,28.05v4.48l-47.18,8.87v-37.25h-196.43ZM155.99-.79h158.56c12.82,0,23.42,1.02,31.84,3.05,8.39,2.03,15.16,5.64,20.29,10.81,5.11,5.19,8.68,12.12,10.69,20.81,2.01,8.69,3.01,14.74,3.01,28.05v4.48l-47.18,8.87v-37.25h-196.43"/>
    </g>
    <path class="st2" d="M160.91,246.78l-2.47,4.19s4.49,21.52,14.36,27.71c9.87,6.18,17.05,11.23,37.02,11.78,19.97.55,27.23.16,27.23.16l20.79-.02s-20.11-1.55-34.24-8.95c-12.03-6.29-18.4-13.68-19.97-19.97-1.21-4.85-1.42-11.01-1.42-11.01l-.15-10.51-41.14,6.62Z"/>
  </g>
</svg>