<?xml version="1.0" encoding="UTF-8"?>
<svg id="Layer_1" xmlns="http://www.w3.org/2000/svg" version="1.1" viewBox="0 0 360 288">
  <!-- Generator: Adobe Illustrator 30.3.0, SVG Export Plug-In . SVG Version: 2.1.3 Build 182)  -->
  <defs>
    <style>
      .st0 {
        fill: #fff;
      }

      .st1 {
        fill: #be202e;
      }
    </style>
  </defs>
  <g>
    <path class="st0" d="M111.18,89.11v54.03h181.51c13.09,0,24.03,1.09,32.83,3.3,8.8,2.18,15.72,5.84,20.79,10.95,5.05,5.13,8.59,11.97,10.67,20.55,2.03,8.58,3.08,12.43,3.08,25.2v17.67c0,13.15-1.05,24.01-3.08,32.59-2.08,8.58-5.71,15.43-10.97,20.55-5.23,5.11-12.15,8.67-20.77,10.68-8.61,2.01-19.46,3.01-32.55,3.01h-158.44c-13.09,0-23.94-1-32.55-3.01-8.61-2.01-15.53-5.57-20.79-10.68-5.23-5.13-8.98-11.97-11.22-20.55-2.24-8.58-3.36-28.43-3.36-41.58v-7.67l45.89-10.41v54.47h203.08v-63.98h-180.94c-13.11,0-23.96-1-32.55-3.01-8.61-2.01-15.44-5.57-20.49-10.68s-8.7-11.97-10.97-20.55c-2.24-8.58-3.36-22.82-3.36-35.98v3.59c0-13.15,1.12-24.01,3.36-32.59,2.26-8.58,5.92-15.43,10.97-20.55,5.05-5.11,11.88-8.67,20.49-10.68,8.59-2.01,19.44-3.01,32.55-3.01h154.4c11.97,0,22.25.91,30.86,2.74s15.63,5.11,21.06,9.85c5.41,4.75,9.43,11.15,12.06,19.17,2.63,8.05,3.93,18.08,3.93,30.14v6.02l-42.5,11.5v-41.09H111.18Z"/>
    <path class="st1" d="M47.06,38.36v209.86h195.63v-55.29l46.98,9.88v18.01c0,13.15-1,24.01-3,32.59-2,8.58-5.56,15.43-10.65,20.55-5.11,5.11-11.85,8.67-20.21,10.68-8.38,2.01-18.94,3.01-31.71,3.01H66.18c-12.76,0-23.33-1-31.71-3.01-8.38-2.01-15.12-5.57-20.21-10.68-5.11-5.13-8.74-11.97-10.92-20.55C1.14,244.83.05,233.97.05,220.82V66.85C.05,53.7,1.14,42.84,3.34,34.26c2.18-8.58,5.8-15.43,10.92-20.55,5.09-5.11,11.83-8.67,20.21-10.68C42.86,1.02,53.42.01,66.18.01h157.92c12.76,0,23.33,1,31.71,3.01,8.36,2.01,15.1,5.57,20.21,10.68,5.09,5.13,8.65,11.97,10.65,20.55s3,14.56,3,27.71v4.42l-46.98,8.76v-36.79H47.06ZM66.18.01h157.92c12.76,0,23.33,1,31.71,3.01,8.36,2.01,15.1,5.57,20.21,10.68,5.09,5.13,8.65,11.97,10.65,20.55s3,14.56,3,27.71v4.42l-46.98,8.76v-36.79H47.06"/>
  </g>
  <path class="st0" d="M71.09,244.57l-2.46,4.14s4.47,21.26,14.3,27.37c9.83,6.11,16.98,11.1,36.87,11.64,19.89.55,27.12.16,27.12.16l20.7-.02s-20.03-1.53-34.1-8.84c-11.98-6.22-18.33-13.51-19.89-19.73-1.21-4.79-1.41-10.88-1.41-10.88l-.15-10.39-40.97,6.54Z"/>
</svg>