<?xml version="1.0" encoding="UTF-8"?>
<svg id="Layer_1" data-name="Layer 1" xmlns="http://www.w3.org/2000/svg" viewBox="0 0 1254 1254">
  <defs>
    <style>
      .cls-1 {
        fill: #ff6b1a;
      }
    </style>
  </defs>
  <path class="cls-1" d="M1088.56,319.45c-53.97-82.38-127.53-149.24-212.73-193.37-38.27-19.82-78.92-35.03-120.82-45.21-41.71-10.13-84.61-15.27-127.5-15.27v5h0v-5c-30.57,0-61.32,2.63-91.4,7.81-38.86,6.69-77.01,17.6-113.38,32.4-36.49,14.85-71.36,33.71-103.66,56.04-60.97,42.16-112.61,95.34-153.48,158.05-59.62,91.47-92.4,196.64-94.8,304.16-1.22,54.82,5.76,109.2,20.75,161.64,15.1,52.82,38.04,102.63,68.17,148.03,33.5,50.47,74.68,95.2,122.4,132.96,47.86,37.87,100.92,67.62,157.7,88.43,60.27,22.09,123.63,33.29,188.31,33.29s133.98-12.24,196.84-36.39c53.7-20.63,104.26-49.88,150.29-86.97,45.7-36.81,85.12-79.87,117.16-127.96,34.49-51.77,59.49-108.35,74.31-168.14,22.69-91.58,22.17-187.72-1.51-278.04-15.79-60.23-41.58-117.92-76.65-171.45ZM1131.89,696.62c-4.99,39.6-14.69,78.46-28.84,115.51-23.78,62.26-58.32,117.79-102.66,165.05-49.1,52.33-106.98,93.06-172.05,121.06-31.51,13.56-64.49,23.94-98.04,30.85-33.47,6.9-67.75,10.4-101.88,10.4-45.66,0-91.12-6.22-135.14-18.48-45.19-12.59-88.66-31.51-129.21-56.24-55.31-33.73-103.04-76.45-141.86-126.99-109.66-142.74-135.25-326.73-68.45-492.19,21.84-54.09,51.62-103.57,88.53-147.06,26.44-31.17,56.29-59.13,88.69-83.13,32.8-24.28,68.29-44.54,105.51-60.21,30.08-12.67,61.75-22.38,94.12-28.85,32.16-6.43,65.12-9.69,97.97-9.69,4.7,0,9.47.07,14.17.2,36.05,1.02,71.94,6,106.69,14.8,34.15,8.65,67.53,21.07,99.21,36.91,31.43,15.72,61.45,34.95,89.23,57.14,27.84,22.24,53.65,47.64,76.72,75.5,65.55,79.15,107.55,177.2,118.25,276.09,4.32,39.89,4,80.03-.95,119.32Z"/>
  <g id="_2yXEVT" data-name="2yXEVT">
    <g>
      <path class="cls-1" d="M889.43,383.82l30.43-38.59,33.46.13c17.84.07,33.71,15.75,33.64,34.8l-.7,198.43-1.47,246.92c-.13,22.44-13.71,39.64-36.25,39.61l-327.97-.38-317.41-.18c-20.42-.01-35.95-16.2-36-35.95l-.14-62.23.63-237.68.59-147.99c.08-20.56,17.11-35.14,37.06-36.06l492.52.05c-11.38,15.2-24.49,25.76-36.05,38.88l-445.71.1c-2.89,0-6.14,1.25-7.37,2.65-1.71,1.95-2.41,5.21-2.41,8.69l-.27,349.06c0,6.3,4.58,10.7,11.04,10.7l619.76.08c6.01,0,11.06-4.47,11.1-10.34l1.11-179.39.51-173.34c-.51-4.18-4.02-7.46-8.24-7.5l-51.88-.47ZM650.8,811.2c0-12.9-10.46-23.35-23.35-23.35s-23.35,10.46-23.35,23.35,10.46,23.35,23.35,23.35,23.35-10.46,23.35-23.35Z"/>
      <path class="cls-1" d="M781.91,989.71l-310.88-.47c-5.1-3.26-5.93-8.27-6.36-13.6-1.17-14.4,8.64-26.94,23.57-27.11l28.36-.34c6.95-.08,13.98-4.67,15.15-12.18l8.14-52.47c.26-1.67,2.46-4.18,4.42-4.18l168.26.05,8.46,55.51c1.07,7.01,6.51,12.47,13.09,13.26l30.42.36c15.64.18,25.52,13.33,23.9,28.44-.49,4.58-.8,10.25-6.54,12.74Z"/>
      <g>
        <path class="cls-1" d="M732.36,543.45l-51.22-47.85,87.61-97.13c42.18-44.57,84.72-87.97,130.17-128.68,9.57-8.57,24.61-6.37,32.26,1.51,9.17,9.44,8.43,22.73.36,33.02l-75.62,96.44c-39.55,48.68-79.77,95.37-123.57,142.7Z"/>
        <path class="cls-1" d="M508.1,697.96c11.6-9.72,21.21-18.43,27.7-30.97,12.92-24.96,11.73-46.46,21.94-66.18,17.06-32.94,56.27-44.69,84.65-25.23,13.23,9.07,22.98,24.48,23.78,42.6,1.01,22.92-9.15,44.1-26.67,59.02-33.7,28.7-87.16,32.37-131.4,20.75Z"/>
        <path class="cls-1" d="M722.08,554.72c-14.47,15.5-28.7,29.04-45.27,42.02-8.06-19.87-21.93-33.89-42.06-42.06l34.63-45.33c1.45-.36,2.96-.45,4.62-.29l48.09,45.66Z"/>
      </g>
    </g>
  </g>
</svg>