<?xml version="1.0" encoding="UTF-8"?>
<svg id="Layer_1" data-name="Layer 1" xmlns="http://www.w3.org/2000/svg" width="45" height="45" viewBox="0 0 45 45">
  <defs>
    <style>
      .cls-1 {
        fill: #fff;
      }

      .cls-2 {
        fill: #545454;
      }
    </style>
  </defs>
  <g>
    <path class="cls-2" d="M3.61,22.1C3.61,11.66,12.06,3.21,22.5,3.21s18.89,8.46,18.89,18.89-8.46,18.89-18.89,18.89S3.61,32.53,3.61,22.1Z"/>
    <path class="cls-2" d="M5.73,22.1C5.73,12.84,13.24,5.33,22.5,5.33s16.77,7.51,16.77,16.77-7.5,16.77-16.77,16.77S5.73,31.36,5.73,22.1Z"/>
  </g>
  <path class="cls-1" d="M30.71,24.42s-.08-4.04-3.58-3.97l-1.74,.03-.53-7.9,3.84-1-.03-1.23-12.67,.26v1.23s3.89,.84,3.89,.84l-.21,7.92-1.99,.04c-3.45,.06-3.41,4.12-3.41,4.12l7.46-.16c.17,5.73,.49,11.46,1.09,11.44,.59,0,.68-5.75,.64-11.48l7.24-.15Z"/>
</svg>