<?xml version="1.0" encoding="UTF-8"?>
<svg id="Layer_1" data-name="Layer 1" xmlns="http://www.w3.org/2000/svg" width="45" height="45" xmlns:xlink="http://www.w3.org/1999/xlink" viewBox="0 0 45 45">
  <defs>
    <style>
      .cls-1 {
        fill: none;
      }

      .cls-2 {
        clip-path: url(#clippath);
      }

      .cls-3 {
        fill: #fff;
      }

      .cls-4 {
        fill: #545454;
      }
    </style>
    <clipPath id="clippath">
      <rect class="cls-1" x="11.4" y="11.7" width="23.84" height="20.21"/>
    </clipPath>
  </defs>
  <g>
    <path class="cls-4" d="M4.42,21.81C4.42,11.37,12.88,2.92,23.31,2.92s18.89,8.46,18.89,18.89-8.46,18.89-18.89,18.89S4.42,32.24,4.42,21.81Z"/>
    <path class="cls-4" d="M6.55,21.81C6.55,12.55,14.05,5.04,23.31,5.04s16.77,7.51,16.77,16.77-7.5,16.77-16.77,16.77S6.55,31.07,6.55,21.81Z"/>
  </g>
  <g class="cls-2">
    <path class="cls-3" d="M35.17,16.85c-.03-.56,.17-1.19-.2-1.68-.66-.18-1.31-.36-1.97-.52-.03-.81,.03-1.63-.03-2.44-.09-.55-.77-.36-1.16-.37-3.39,.17-6.52,2.09-8.51,4.79-2.15-2.92-5.66-4.94-9.34-4.79-.07,.06-.22,.19-.3,.25-.11,.84,0,1.71-.05,2.56-.75,.3-1.85,.25-2.2,1.11,.14,.34,.17,.71,.16,1.07-.03,4.31,.03,8.62-.03,12.93-.06,.32,0,.9,.47,.8,1.51-.55,3.13-.75,4.73-.65,2.17,.17,4.43,.68,6.22,1.98,.17,0,.52,0,.69,0,.99-.76,2.19-1.17,3.37-1.51,2.54-.71,5.28-.64,7.77,.21,.53-.09,.39-.67,.39-1.06-.02-4.22,0-8.44-.01-12.67ZM12.47,29.39c.01-4.45,0-8.91,0-13.36,.38-.14,.76-.27,1.15-.4,0,3.55,0,7.11,0,10.67-.05,.65,.76,.53,1.18,.57,2.51,.11,4.8,1.38,6.63,3.05-2.82-1.14-6.03-1.4-8.96-.52Zm12.28,.75c1.39-1.37,3-2.59,4.91-3.12,.98-.33,2.03-.37,3.05-.46,.33-.04,.26-.45,.29-.69,0-3.4,0-6.8,0-10.2,.41,.12,.82,.25,1.23,.37,.06,4.45,0,8.9,.03,13.36-3.13-.87-6.54-.56-9.51,.74Z"/>
  </g>
</svg>