<?xml version="1.0" encoding="UTF-8"?>
<svg id="Layer_1" data-name="Layer 1" xmlns="http://www.w3.org/2000/svg" width="45" height="45" viewBox="0 0 45 45">
  <defs>
    <style>
      .cls-1 {
        fill: #fff;
      }

      .cls-2 {
        fill: #545454;
      }
    </style>
  </defs>
  <g>
    <path class="cls-2" d="M3.61,22.39C3.61,11.95,12.06,3.5,22.5,3.5s18.89,8.46,18.89,18.89-8.46,18.89-18.89,18.89S3.61,32.82,3.61,22.39Z"/>
    <path class="cls-2" d="M5.73,22.39C5.73,13.13,13.24,5.62,22.5,5.62s16.77,7.51,16.77,16.77-7.5,16.77-16.77,16.77S5.73,31.65,5.73,22.39Z"/>
  </g>
  <g>
    <path class="cls-1" d="M25.03,24.37c.19-.22,.39-.46,.56-.71,.16-.24,.31-.48,.45-.72l-1.36-1.43c.1-.22,.18-.45,.25-.67l1.98-.23c.12-.58,.17-1.17,.16-1.75l-1.89-.56c-.03-.24-.07-.47-.12-.71l1.59-1.19c-.18-.55-.42-1.09-.73-1.6l-1.91,.46c-.15-.19-.29-.38-.46-.56l.78-1.82c-.22-.2-.46-.39-.7-.56-.24-.17-.48-.32-.72-.45l-1.43,1.35c-.22-.1-.45-.18-.68-.26l-.23-1.97c-.58-.11-1.17-.17-1.75-.17l-.55,1.89c-.25,.03-.48,.06-.71,.11l-1.19-1.59c-.55,.19-1.09,.43-1.6,.73l.46,1.91c-.19,.14-.38,.3-.56,.46l-1.83-.79c-.2,.22-.38,.46-.56,.71-.16,.24-.32,.48-.45,.73l1.35,1.42c-.1,.22-.19,.45-.26,.67l-1.97,.24c-.12,.57-.17,1.16-.17,1.75l1.89,.56c.02,.24,.07,.47,.11,.71l-1.59,1.19c.19,.55,.43,1.09,.73,1.6l1.91-.46c.14,.2,.3,.38,.45,.56l-.78,1.82c.22,.2,.46,.39,.71,.57,.23,.16,.47,.31,.72,.45l1.43-1.36c.22,.1,.45,.18,.67,.26l.24,1.98c.57,.12,1.16,.17,1.74,.16l.56-1.89c.23-.02,.47-.07,.7-.12l1.19,1.59c.56-.18,1.09-.43,1.6-.73l-.46-1.91c.19-.14,.38-.29,.56-.46l1.83,.78Zm-8.52-1.92c-1.9-1.34-2.35-3.98-1.01-5.87,1.34-1.9,3.97-2.35,5.88-1.01,1.9,1.34,2.35,3.97,1.01,5.87-1.35,1.9-3.98,2.35-5.88,1.01Z"/>
    <path class="cls-1" d="M32.67,32.25c.19-.19,.36-.39,.51-.61,.16-.23,.31-.47,.43-.71l-1.09-1.17c.08-.27,.14-.53,.17-.81l1.51-.58c0-.55-.1-1.09-.27-1.61l-1.64-.05c-.12-.24-.26-.47-.42-.68l.66-1.52c-.19-.18-.39-.35-.61-.5-.23-.16-.46-.31-.71-.43l-1.22,1.14c-.25-.08-.51-.14-.77-.17l-.62-1.56c-.53,.01-1.07,.11-1.58,.28l-.06,1.66c-.24,.12-.47,.26-.68,.42l-1.52-.66c-.16,.18-.32,.37-.47,.57-.18,.24-.32,.5-.45,.76l1.12,1.19c-.09,.27-.16,.53-.19,.8l-1.5,.59c.01,.55,.11,1.09,.28,1.6l1.6,.05c.12,.25,.28,.49,.44,.71l-.63,1.45c.18,.17,.38,.33,.59,.48,.24,.18,.49,.32,.75,.45l1.15-1.08c.27,.09,.54,.16,.83,.19l.57,1.46c.54-.01,1.09-.11,1.61-.28l.05-1.57c.25-.13,.49-.28,.71-.45l1.45,.63Zm-2.26-1.88c-1.07,.9-2.65,.77-3.54-.29-.9-1.06-.77-2.65,.29-3.54,1.06-.9,2.65-.77,3.55,.29,.89,1.05,.77,2.64-.29,3.54Z"/>
  </g>
</svg>