<?xml version="1.0" encoding="UTF-8"?>
<svg id="Layer_1" data-name="Layer 1" xmlns="http://www.w3.org/2000/svg" width="45" height="45" viewBox="0 0 45 45">
  <defs>
    <style>
      .cls-1 {
        fill: #fff;
      }

      .cls-2 {
        fill: #545454;
      }
    </style>
  </defs>
  <g>
    <path class="cls-2" d="M3.6,23C3.6,12.56,12.06,4.1,22.49,4.1s18.89,8.46,18.89,18.89-8.46,18.89-18.89,18.89S3.6,33.43,3.6,23Z"/>
    <path class="cls-2" d="M5.73,23C5.73,13.74,13.23,6.22,22.49,6.22s16.77,7.51,16.77,16.77-7.5,16.77-16.77,16.77S5.73,32.26,5.73,23Z"/>
  </g>
  <path class="cls-1" d="M20.82,24.36h0c-1.24-.59-2.7-.92-4.24-.92-.19,0-.38,0-.58,.01-.96,.05-1.87,.23-2.72,.51-.21,.08-.33,.31-.26,.52,.06,.21,.3,.33,.52,.26,.78-.26,1.63-.43,2.51-.47,.18-.01,.35-.02,.53-.02,1.43,0,2.76,.31,3.89,.84,.06,.03,.11,.04,.17,.04,.15,0,.3-.09,.37-.23,.1-.21,0-.45-.19-.55Zm3.54-4.9c.06,0,.12-.01,.17-.04,1.13-.53,2.46-.85,3.89-.85,.18,0,.35,0,.53,.01,.89,.05,1.73,.22,2.52,.48,.21,.06,.45-.05,.51-.27,.07-.21-.05-.45-.26-.52-.85-.27-1.76-.46-2.72-.51-.19-.01-.39-.02-.58-.02-1.55,0-2.99,.33-4.24,.92-.21,.09-.29,.34-.2,.54,.07,.14,.22,.23,.37,.23Zm-.37,2.6c.07,.15,.22,.24,.37,.24,.06,0,.12-.01,.17-.04,1.13-.54,2.46-.84,3.89-.84,.18,0,.35,0,.53,.01,.89,.05,1.73,.22,2.52,.48,.21,.07,.45-.05,.51-.26,.07-.22-.05-.45-.26-.52-.85-.27-1.76-.46-2.72-.51-.19-.01-.39-.01-.58-.01-1.55,0-2.99,.33-4.24,.92-.21,.1-.29,.34-.2,.54Zm0,2.84c.07,.14,.22,.23,.37,.23,.06,0,.12-.01,.17-.04,1.12-.53,2.44-.83,3.85-.84,.03-.3,.07-.58,.16-.81-.04,0-.08,0-.12,0-1.55,0-2.99,.33-4.24,.92-.21,.1-.29,.34-.2,.55Zm9.29-10.14c-1.34-.3-2.74-.45-4.16-.45-2.34,0-4.62,.41-6.62,1.2-2-.79-4.27-1.2-6.62-1.2-1.38,0-2.78,.15-4.16,.46-.69,.16-1.19,.77-1.19,1.48v11.73c0,.46,.21,.9,.57,1.19,.27,.21,.6,.33,.95,.33,.11,0,.22-.01,.33-.04,1.14-.26,2.31-.38,3.49-.38,2.17,0,4.24,.41,6,1.2,.2,.09,.41,.13,.62,.13s.42-.04,.62-.13c1.19-.53,2.53-.87,3.93-1.05-.02-.1-.02-.18-.02-.26,0-.68,0-1.46,.14-2.15-1.44,.16-2.8,.48-4.01,.95v-10.87c1.75-.68,3.78-1.06,5.96-1.06,1.34,0,2.62,.15,3.82,.42v9.32c.53,.22,1.07,.53,1.52,.93v-10.25c0-.71-.49-1.33-1.19-1.49Zm-11.44,13c-1.75-.68-3.78-1.06-5.96-1.06-1.34,0-2.62,.15-3.83,.42v-10.86c1.2-.27,2.48-.43,3.83-.43,2.17,0,4.21,.38,5.96,1.06v10.87Zm-1.02-6.25h0c-1.24-.59-2.7-.92-4.24-.92-.19,0-.38,0-.58,.01-.96,.05-1.87,.24-2.72,.51-.21,.07-.33,.3-.26,.52,.06,.21,.3,.33,.52,.26,.78-.26,1.63-.43,2.51-.47,.18,0,.35-.01,.53-.01,1.43,0,2.76,.31,3.89,.84,.06,.03,.11,.04,.17,.04,.16,0,.3-.09,.37-.24,.1-.2,0-.45-.19-.54Zm-7.8-2.72c.06,.22,.3,.33,.52,.27,.78-.26,1.63-.44,2.51-.48,.18,0,.35-.01,.53-.01,1.43,0,2.76,.31,3.89,.85,.06,.03,.11,.04,.17,.04,.15,0,.3-.09,.37-.23,.1-.2,0-.45-.19-.54h0c-1.24-.59-2.7-.92-4.24-.92-.19,0-.38,0-.58,.02-.96,.05-1.87,.24-2.72,.51-.21,.07-.33,.31-.26,.52Zm18.34,7.66v-1.87c0-1.86-1.68-1.83-1.68,0,0,.44,.01,1.47,.02,2.35-.08-.36-.24-.65-.57-.65-.66,0-.77,.7-.77,2.68,0,.44,1.91,2.87,1.91,2.87l.02,1.18h2.94s0-1.14,0-1.14c0,0,1.03-1.72,1.03-2.96,0-1.92-2.91-2.44-2.91-2.44Z"/>
</svg>